<mxfile host="app.diagrams.net" modified="2023-12-21T09:55:33.897Z" agent="Mozilla/5.0 (Windows NT 10.0; Win64; x64) AppleWebKit/537.36 (KHTML, like Gecko) Chrome/120.0.0.0 Safari/537.36" etag="fLOH9MQccNQ3TeG401Bi" version="22.1.11" type="google">
  <diagram name="第 1 页" id="TxgAaukhbbM7dQF25EvS">
    <mxGraphModel grid="1" page="1" gridSize="10" guides="1" tooltips="1" connect="1" arrows="1" fold="1" pageScale="1" pageWidth="4681" pageHeight="3300" math="0" shadow="0">
      <root>
        <mxCell id="0" />
        <mxCell id="1" parent="0" />
        <mxCell id="i1LxSmRUBLMHvUH655ad-1" value="2.角色(參與者):" style="rounded=0;whiteSpace=wrap;html=1;align=left;" vertex="1" parent="1">
          <mxGeometry x="400" y="738" width="220" height="30" as="geometry" />
        </mxCell>
        <mxCell id="i1LxSmRUBLMHvUH655ad-2" value="顧客" style="rounded=0;whiteSpace=wrap;html=1;align=left;" vertex="1" parent="1">
          <mxGeometry x="620" y="738" width="230" height="30" as="geometry" />
        </mxCell>
        <mxCell id="i1LxSmRUBLMHvUH655ad-3" value="1.目標" style="rounded=0;whiteSpace=wrap;html=1;align=left;" vertex="1" parent="1">
          <mxGeometry x="400" y="708" width="90" height="30" as="geometry" />
        </mxCell>
        <mxCell id="i1LxSmRUBLMHvUH655ad-4" value="本用例允許新聞採集人員廢止新聞內容.進而將新聞狀態改成&quot;廢止&quot;" style="rounded=0;whiteSpace=wrap;html=1;align=left;" vertex="1" parent="1">
          <mxGeometry x="490" y="708" width="360" height="30" as="geometry" />
        </mxCell>
        <mxCell id="i1LxSmRUBLMHvUH655ad-5" value="3.事件流:" style="rounded=0;whiteSpace=wrap;html=1;align=left;" vertex="1" parent="1">
          <mxGeometry x="400" y="768" width="450" height="30" as="geometry" />
        </mxCell>
        <mxCell id="i1LxSmRUBLMHvUH655ad-6" value="" style="rounded=0;whiteSpace=wrap;html=1;" vertex="1" parent="1">
          <mxGeometry x="400" y="798" width="10" height="30" as="geometry" />
        </mxCell>
        <mxCell id="i1LxSmRUBLMHvUH655ad-7" value="" style="rounded=0;whiteSpace=wrap;html=1;" vertex="1" parent="1">
          <mxGeometry x="400" y="828" width="10" height="30" as="geometry" />
        </mxCell>
        <mxCell id="i1LxSmRUBLMHvUH655ad-8" value="" style="rounded=0;whiteSpace=wrap;html=1;" vertex="1" parent="1">
          <mxGeometry x="400" y="858" width="10" height="30" as="geometry" />
        </mxCell>
        <mxCell id="i1LxSmRUBLMHvUH655ad-9" value="" style="rounded=0;whiteSpace=wrap;html=1;" vertex="1" parent="1">
          <mxGeometry x="400" y="888" width="10" height="30" as="geometry" />
        </mxCell>
        <mxCell id="i1LxSmRUBLMHvUH655ad-10" value="" style="rounded=0;whiteSpace=wrap;html=1;" vertex="1" parent="1">
          <mxGeometry x="400" y="918" width="10" height="30" as="geometry" />
        </mxCell>
        <mxCell id="i1LxSmRUBLMHvUH655ad-11" value="" style="rounded=0;whiteSpace=wrap;html=1;" vertex="1" parent="1">
          <mxGeometry x="400" y="948" width="10" height="32" as="geometry" />
        </mxCell>
        <mxCell id="i1LxSmRUBLMHvUH655ad-12" value="3.1常規流程:" style="rounded=0;whiteSpace=wrap;html=1;align=left;" vertex="1" parent="1">
          <mxGeometry x="410" y="798" width="440" height="30" as="geometry" />
        </mxCell>
        <mxCell id="i1LxSmRUBLMHvUH655ad-13" value="" style="rounded=0;whiteSpace=wrap;html=1;" vertex="1" parent="1">
          <mxGeometry x="410" y="828" width="20" height="30" as="geometry" />
        </mxCell>
        <mxCell id="i1LxSmRUBLMHvUH655ad-14" value="" style="rounded=0;whiteSpace=wrap;html=1;" vertex="1" parent="1">
          <mxGeometry x="410" y="858" width="20" height="30" as="geometry" />
        </mxCell>
        <mxCell id="i1LxSmRUBLMHvUH655ad-15" value="" style="rounded=0;whiteSpace=wrap;html=1;" vertex="1" parent="1">
          <mxGeometry x="410" y="888" width="20" height="30" as="geometry" />
        </mxCell>
        <mxCell id="i1LxSmRUBLMHvUH655ad-16" value="3.2備選流程" style="rounded=0;whiteSpace=wrap;html=1;align=left;" vertex="1" parent="1">
          <mxGeometry x="410" y="918" width="440" height="30" as="geometry" />
        </mxCell>
        <mxCell id="i1LxSmRUBLMHvUH655ad-17" value="" style="rounded=0;whiteSpace=wrap;html=1;" vertex="1" parent="1">
          <mxGeometry x="410" y="948" width="20" height="32" as="geometry" />
        </mxCell>
        <mxCell id="i1LxSmRUBLMHvUH655ad-18" value="(1)用戶瀏覽商品信息；" style="rounded=0;whiteSpace=wrap;html=1;align=left;" vertex="1" parent="1">
          <mxGeometry x="430" y="828" width="420" height="30" as="geometry" />
        </mxCell>
        <mxCell id="i1LxSmRUBLMHvUH655ad-19" value="(2)查看商品詳細信息；" style="rounded=0;whiteSpace=wrap;html=1;align=left;" vertex="1" parent="1">
          <mxGeometry x="430" y="858" width="420" height="30" as="geometry" />
        </mxCell>
        <mxCell id="i1LxSmRUBLMHvUH655ad-20" value="(3)添加購物車；" style="rounded=0;whiteSpace=wrap;html=1;align=left;" vertex="1" parent="1">
          <mxGeometry x="430" y="888" width="420" height="30" as="geometry" />
        </mxCell>
        <mxCell id="i1LxSmRUBLMHvUH655ad-21" value="4.前置條件:" style="rounded=0;whiteSpace=wrap;html=1;align=left;" vertex="1" parent="1">
          <mxGeometry x="400" y="980" width="90" height="30" as="geometry" />
        </mxCell>
        <mxCell id="i1LxSmRUBLMHvUH655ad-22" value="5.後置條件:" style="rounded=0;whiteSpace=wrap;html=1;align=left;" vertex="1" parent="1">
          <mxGeometry x="400" y="1010" width="90" height="30" as="geometry" />
        </mxCell>
        <mxCell id="i1LxSmRUBLMHvUH655ad-23" value="顧客須購買商品" style="rounded=0;whiteSpace=wrap;html=1;align=left;" vertex="1" parent="1">
          <mxGeometry x="490" y="980" width="360" height="30" as="geometry" />
        </mxCell>
        <mxCell id="i1LxSmRUBLMHvUH655ad-24" value="進行添加訂單操作" style="rounded=0;whiteSpace=wrap;html=1;align=left;" vertex="1" parent="1">
          <mxGeometry x="490" y="1010" width="360" height="30" as="geometry" />
        </mxCell>
        <mxCell id="i1LxSmRUBLMHvUH655ad-25" value="&lt;font style=&quot;font-size: 11px;&quot;&gt;無&lt;br&gt;&lt;/font&gt;" style="rounded=0;whiteSpace=wrap;html=1;align=left;" vertex="1" parent="1">
          <mxGeometry x="430" y="948" width="420" height="32" as="geometry" />
        </mxCell>
        <mxCell id="i1LxSmRUBLMHvUH655ad-27" value="表3-3&amp;nbsp; &amp;nbsp; 購物車用例描述" style="rounded=0;whiteSpace=wrap;html=1;strokeColor=none;" vertex="1" parent="1">
          <mxGeometry x="549" y="679" width="162" height="19" as="geometry" />
        </mxCell>
      </root>
    </mxGraphModel>
  </diagram>
</mxfile>
